REM DIRINDEX 1\6,1\2\7,1\2\8,1\2\9,1\3\10,1\3\11,1\4\12,1\4\13,1\4\14,1\5\15,1\5\16,1\5\17
REM DIRNAME cjc040,folder01,folder02,folder03,folder04,folder05,folder06,folder07,folder08,folder09,folder10,folder11,folder12,folder13,folder14,folder15,folder16
TITLE ""
FILE "P2Q_t2_0179-0196.mp3" MP3
  TRACK 01 AUDIO
    TITLE "7:cjc040_4364"
    INDEX 01 00:00:00
  TRACK 02 AUDIO
    TITLE "0:"
    INDEX 01 00:01:03
  TRACK 03 AUDIO
    TITLE "8:cjc040_4365"
    INDEX 01 00:01:58
  TRACK 04 AUDIO
    TITLE "0:"
    INDEX 01 00:03:06
  TRACK 05 AUDIO
    TITLE "9:cjc040_4366"
    INDEX 01 00:03:57
  TRACK 06 AUDIO
    TITLE "0:"
    INDEX 01 00:04:70
  TRACK 07 AUDIO
    TITLE "7:cjc040_4367"
    INDEX 01 00:06:53
  TRACK 08 AUDIO
    TITLE "0:"
    INDEX 01 00:07:70
  TRACK 09 AUDIO
    TITLE "8:cjc040_4368"
    INDEX 01 00:08:48
  TRACK 10 AUDIO
    TITLE "0:"
    INDEX 01 00:10:59
  TRACK 11 AUDIO
    TITLE "9:cjc040_4369"
    INDEX 01 00:11:37
  TRACK 12 AUDIO
    TITLE "0:"
    INDEX 01 00:12:56
  TRACK 13 AUDIO
    TITLE "7:cjc040_4370"
    INDEX 01 00:14:37
  TRACK 14 AUDIO
    TITLE "0:"
    INDEX 01 00:15:52
  TRACK 15 AUDIO
    TITLE "8:cjc040_4371"
    INDEX 01 00:16:32
  TRACK 16 AUDIO
    TITLE "0:"
    INDEX 01 00:17:25
  TRACK 17 AUDIO
    TITLE "9:cjc040_4372"
    INDEX 01 00:18:03
  TRACK 18 AUDIO
    TITLE "0:"
    INDEX 01 00:19:22
  TRACK 19 AUDIO
    TITLE "7:cjc040_4373"
    INDEX 01 00:21:06
  TRACK 20 AUDIO
    TITLE "0:"
    INDEX 01 00:22:34
  TRACK 21 AUDIO
    TITLE "8:cjc040_4374"
    INDEX 01 00:23:12
  TRACK 22 AUDIO
    TITLE "0:"
    INDEX 01 00:24:20
  TRACK 23 AUDIO
    TITLE "9:cjc040_4375"
    INDEX 01 00:24:74
  TRACK 24 AUDIO
    TITLE "0:"
    INDEX 01 00:26:32
  TRACK 25 AUDIO
    TITLE "7:cjc040_4376"
    INDEX 01 00:28:15
  TRACK 26 AUDIO
    TITLE "0:"
    INDEX 01 00:29:17
  TRACK 27 AUDIO
    TITLE "8:cjc040_4377"
    INDEX 01 00:30:01
  TRACK 28 AUDIO
    TITLE "0:"
    INDEX 01 00:32:29
  TRACK 29 AUDIO
    TITLE "9:cjc040_4378"
    INDEX 01 00:33:03
  TRACK 30 AUDIO
    TITLE "0:"
    INDEX 01 00:34:10
  TRACK 31 AUDIO
    TITLE "7:cjc040_4379"
    INDEX 01 00:35:68
  TRACK 32 AUDIO
    TITLE "0:"
    INDEX 01 00:36:70
  TRACK 33 AUDIO
    TITLE "8:cjc040_4380"
    INDEX 01 00:37:54
  TRACK 34 AUDIO
    TITLE "0:"
    INDEX 01 00:41:49
  TRACK 35 AUDIO
    TITLE "9:cjc040_4381"
    INDEX 01 00:42:27
  TRACK 36 AUDIO
    TITLE "0:"
    INDEX 01 00:43:29
  TRACK 37 AUDIO
    TITLE "7:cjc040_4382"
    INDEX 01 00:45:10
  TRACK 38 AUDIO
    TITLE "0:"
    INDEX 01 00:46:23
  TRACK 39 AUDIO
    TITLE "8:cjc040_4383"
    INDEX 01 00:47:03
  TRACK 40 AUDIO
    TITLE "0:"
    INDEX 01 00:49:18
  TRACK 41 AUDIO
    TITLE "9:cjc040_4384"
    INDEX 01 00:49:70
  TRACK 42 AUDIO
    TITLE "0:"
    INDEX 01 00:51:07
  TRACK 43 AUDIO
    TITLE "7:cjc040_4385"
    INDEX 01 00:52:61
  TRACK 44 AUDIO
    TITLE "0:"
    INDEX 01 00:53:70
  TRACK 45 AUDIO
    TITLE "8:cjc040_4386"
    INDEX 01 00:54:50
  TRACK 46 AUDIO
    TITLE "0:"
    INDEX 01 00:55:55
  TRACK 47 AUDIO
    TITLE "9:cjc040_4387"
    INDEX 01 00:56:31
  TRACK 48 AUDIO
    TITLE "0:"
    INDEX 01 00:57:41
  TRACK 49 AUDIO
    TITLE "7:cjc040_4388"
    INDEX 01 00:59:28
  TRACK 50 AUDIO
    TITLE "0:"
    INDEX 01 01:00:37
  TRACK 51 AUDIO
    TITLE "8:cjc040_4389"
    INDEX 01 01:01:13
  TRACK 52 AUDIO
    TITLE "0:"
    INDEX 01 01:03:20
  TRACK 53 AUDIO
    TITLE "9:cjc040_4390"
    INDEX 01 01:04:03
  TRACK 54 AUDIO
    TITLE "0:"
    INDEX 01 01:05:15
  TRACK 55 AUDIO
    TITLE "7:cjc040_4391"
    INDEX 01 01:06:73
  TRACK 56 AUDIO
    TITLE "0:"
    INDEX 01 01:08:21
  TRACK 57 AUDIO
    TITLE "8:cjc040_4392"
    INDEX 01 01:08:74
  TRACK 58 AUDIO
    TITLE "0:"
    INDEX 01 01:11:23
  TRACK 59 AUDIO
    TITLE "9:cjc040_4393"
    INDEX 01 01:11:74
  TRACK 60 AUDIO
    TITLE "0:"
    INDEX 01 01:13:20
  TRACK 61 AUDIO
    TITLE "7:cjc040_4394"
    INDEX 01 01:14:72
  TRACK 62 AUDIO
    TITLE "0:"
    INDEX 01 01:16:20
  TRACK 63 AUDIO
    TITLE "8:cjc040_4395"
    INDEX 01 01:16:73
  TRACK 64 AUDIO
    TITLE "0:"
    INDEX 01 01:18:17
  TRACK 65 AUDIO
    TITLE "9:cjc040_4396"
    INDEX 01 01:18:70
  TRACK 66 AUDIO
    TITLE "0:"
    INDEX 01 01:20:24
  TRACK 67 AUDIO
    TITLE "7:cjc040_4397"
    INDEX 01 01:22:05
  TRACK 68 AUDIO
    TITLE "0:"
    INDEX 01 01:23:05
  TRACK 69 AUDIO
    TITLE "8:cjc040_4398"
    INDEX 01 01:23:71
  TRACK 70 AUDIO
    TITLE "0:"
    INDEX 01 01:26:21
  TRACK 71 AUDIO
    TITLE "9:cjc040_4399"
    INDEX 01 01:26:74
  TRACK 72 AUDIO
    TITLE "0:"
    INDEX 01 01:28:08
  TRACK 73 AUDIO
    TITLE "7:cjc040_4400"
    INDEX 01 01:29:70
  TRACK 74 AUDIO
    TITLE "0:"
    INDEX 01 01:31:18
  TRACK 75 AUDIO
    TITLE "8:cjc040_4401"
    INDEX 01 01:31:73
  TRACK 76 AUDIO
    TITLE "0:"
    INDEX 01 01:33:17
  TRACK 77 AUDIO
    TITLE "9:cjc040_4402"
    INDEX 01 01:33:74
  TRACK 78 AUDIO
    TITLE "0:"
    INDEX 01 01:35:20
  TRACK 79 AUDIO
    TITLE "7:cjc040_4403"
    INDEX 01 01:37:09
  TRACK 80 AUDIO
    TITLE "0:"
    INDEX 01 01:38:12
  TRACK 81 AUDIO
    TITLE "8:cjc040_4404"
    INDEX 01 01:38:59
  TRACK 82 AUDIO
    TITLE "0:"
    INDEX 01 01:41:18
  TRACK 83 AUDIO
    TITLE "9:cjc040_4405"
    INDEX 01 01:41:71
  TRACK 84 AUDIO
    TITLE "0:"
    INDEX 01 01:43:05
  TRACK 85 AUDIO
    TITLE "7:cjc040_4406"
    INDEX 01 01:44:60
  TRACK 86 AUDIO
    TITLE "0:"
    INDEX 01 01:45:65
  TRACK 87 AUDIO
    TITLE "8:cjc040_4407"
    INDEX 01 01:46:43
  TRACK 88 AUDIO
    TITLE "0:"
    INDEX 01 01:49:08
  TRACK 89 AUDIO
    TITLE "9:cjc040_4408"
    INDEX 01 01:49:67
  TRACK 90 AUDIO
    TITLE "0:"
    INDEX 01 01:50:72
  TRACK 91 AUDIO
    TITLE "7:cjc040_4409"
    INDEX 01 01:52:55
  TRACK 92 AUDIO
    TITLE "0:"
    INDEX 01 01:53:67
  TRACK 93 AUDIO
    TITLE "8:cjc040_4410"
    INDEX 01 01:54:44
  TRACK 94 AUDIO
    TITLE "0:"
    INDEX 01 01:57:02
  TRACK 95 AUDIO
    TITLE "9:cjc040_4411"
    INDEX 01 01:57:58
  TRACK 96 AUDIO
    TITLE "0:"
    INDEX 01 01:58:68
  TRACK 97 AUDIO
    TITLE "7:cjc040_4412"
    INDEX 01 02:00:53
  TRACK 98 AUDIO
    TITLE "0:"
    INDEX 01 02:01:64
  TRACK 99 AUDIO
    TITLE "8:cjc040_4413"
    INDEX 01 02:02:40
  TRACK 100 AUDIO
    TITLE "0:"
    INDEX 01 02:05:17
  TRACK 101 AUDIO
    TITLE "9:cjc040_4414"
    INDEX 01 02:05:70
  TRACK 102 AUDIO
    TITLE "0:"
    INDEX 01 02:07:10
  TRACK 103 AUDIO
    TITLE "7:cjc040_4415"
    INDEX 01 02:08:64
  TRACK 104 AUDIO
    TITLE "0:"
    INDEX 01 02:09:71
  TRACK 105 AUDIO
    TITLE "8:cjc040_4416"
    INDEX 01 02:10:47
  TRACK 106 AUDIO
    TITLE "0:"
    INDEX 01 02:11:51
  TRACK 107 AUDIO
    TITLE "9:cjc040_4417"
    INDEX 01 02:12:27
  TRACK 108 AUDIO
    TITLE "0:"
    INDEX 01 02:13:36
